<svg width="433" height="64" viewBox="0 0 433 64" fill="none" xmlns="http://www.w3.org/2000/svg">
<path d="M53.1659 41.184H53.2619V14.016H58.0139V48H52.0139L34.0619 20.256H33.9659V48H29.2139V14.016H35.4059L53.1659 41.184ZM71.0441 48H66.2921V14.016H77.1881C78.8201 14.016 80.3721 14.192 81.8441 14.544C83.3161 14.864 84.5961 15.392 85.6841 16.128C86.8041 16.864 87.6841 17.84 88.3241 19.056C88.9641 20.24 89.2841 21.696 89.2841 23.424C89.2841 25.92 88.5161 27.936 86.9801 29.472C85.4441 31.008 83.4601 31.984 81.0281 32.4L90.5321 48H84.7721L76.1321 32.88H71.0441V48ZM71.0441 28.896H76.5161C77.6361 28.896 78.6761 28.8 79.6361 28.608C80.5961 28.416 81.4281 28.112 82.1321 27.696C82.8681 27.248 83.4441 26.688 83.8601 26.016C84.2761 25.312 84.4841 24.448 84.4841 23.424C84.4841 22.4 84.2761 21.552 83.8601 20.88C83.4441 20.176 82.8841 19.616 82.1801 19.2C81.5081 18.784 80.7081 18.496 79.7801 18.336C78.8521 18.144 77.8761 18.048 76.8521 18.048H71.0441V28.896ZM100.528 48H95.7764V14.016H100.528V48ZM144.712 48H124.744C122.152 48 119.768 47.584 117.592 46.752C115.448 45.92 113.592 44.752 112.024 43.248C110.456 41.744 109.24 39.92 108.376 37.776C107.512 35.632 107.08 33.232 107.08 30.576C107.08 28.016 107.528 25.68 108.424 23.568C109.32 21.424 110.552 19.584 112.12 18.048C113.688 16.512 115.544 15.312 117.688 14.448C119.864 13.584 122.232 13.152 124.792 13.152C127.32 13.152 129.656 13.584 131.8 14.448C133.944 15.312 135.8 16.512 137.368 18.048C138.936 19.584 140.152 21.424 141.016 23.568C141.912 25.68 142.36 28.016 142.36 30.576C142.36 33.616 141.72 36.272 140.44 38.544C139.16 40.816 137.464 42.608 135.352 43.92V44.016H144.712V48ZM112.216 30.576C112.216 32.432 112.504 34.176 113.08 35.808C113.688 37.408 114.536 38.8 115.624 39.984C116.712 41.168 118.024 42.112 119.56 42.816C121.096 43.488 122.824 43.824 124.744 43.824C126.6 43.824 128.296 43.488 129.832 42.816C131.4 42.112 132.728 41.168 133.816 39.984C134.904 38.8 135.752 37.408 136.36 35.808C136.968 34.176 137.272 32.432 137.272 30.576C137.272 28.752 136.984 27.04 136.408 25.44C135.832 23.84 135 22.448 133.912 21.264C132.824 20.048 131.512 19.088 129.976 18.384C128.44 17.68 126.712 17.328 124.792 17.328C122.872 17.328 121.144 17.68 119.608 18.384C118.072 19.088 116.744 20.048 115.624 21.264C114.536 22.448 113.688 23.84 113.08 25.44C112.504 27.04 112.216 28.752 112.216 30.576ZM162.361 48.864C160.121 48.864 158.169 48.496 156.505 47.76C154.841 46.992 153.465 45.984 152.377 44.736C151.289 43.488 150.473 42.064 149.929 40.464C149.417 38.832 149.161 37.152 149.161 35.424V14.016H153.913V35.136C153.913 36.288 154.057 37.44 154.345 38.592C154.633 39.712 155.097 40.72 155.737 41.616C156.409 42.512 157.273 43.232 158.329 43.776C159.417 44.32 160.761 44.592 162.361 44.592C163.929 44.592 165.257 44.32 166.345 43.776C167.433 43.232 168.297 42.512 168.937 41.616C169.609 40.72 170.089 39.712 170.377 38.592C170.665 37.44 170.809 36.288 170.809 35.136V14.016H175.561V35.424C175.561 37.152 175.289 38.832 174.745 40.464C174.233 42.064 173.433 43.488 172.345 44.736C171.257 45.984 169.881 46.992 168.217 47.76C166.553 48.496 164.601 48.864 162.361 48.864ZM231.573 14.016H243.285C244.565 14.016 245.845 14.16 247.125 14.448C248.405 14.736 249.541 15.216 250.533 15.888C251.557 16.56 252.373 17.44 252.981 18.528C253.621 19.616 253.941 20.976 253.941 22.608C253.941 24.496 253.397 26.08 252.309 27.36C251.221 28.64 249.781 29.52 247.989 30V30.096C249.077 30.224 250.085 30.512 251.013 30.96C251.941 31.376 252.741 31.936 253.413 32.64C254.085 33.344 254.597 34.176 254.949 35.136C255.333 36.096 255.525 37.168 255.525 38.352C255.525 39.984 255.189 41.408 254.517 42.624C253.845 43.84 252.933 44.848 251.781 45.648C250.629 46.416 249.269 47.008 247.701 47.424C246.165 47.808 244.517 48 242.757 48H231.573V14.016ZM236.325 28.368H242.517C243.413 28.368 244.261 28.272 245.061 28.08C245.893 27.856 246.613 27.536 247.221 27.12C247.829 26.672 248.309 26.128 248.661 25.488C249.013 24.816 249.189 24.016 249.189 23.088C249.189 21.264 248.517 19.968 247.173 19.2C245.829 18.4 244.021 18 241.749 18H236.325V28.368ZM236.325 43.968H242.277C243.269 43.968 244.261 43.888 245.253 43.728C246.277 43.536 247.189 43.216 247.989 42.768C248.821 42.32 249.477 41.728 249.957 40.992C250.469 40.224 250.725 39.264 250.725 38.112C250.725 36.096 250.037 34.64 248.661 33.744C247.285 32.848 245.301 32.4 242.709 32.4H236.325V43.968ZM310.322 41.184H310.418V14.016H315.17V48H309.17L291.218 20.256H291.122V48H286.37V14.016H292.562L310.322 41.184ZM328.2 48H323.448V14.016H328.2V48ZM348.384 48H343.632V18.192H332.736V14.016H359.28V18.192H348.384V48ZM421.052 18.192L401.852 43.776H421.34V48H396.092V43.824L415.244 18.192H396.476V14.016H421.052V18.192Z" fill="black"/>
<line x1="204.7" y1="16" x2="182" y2="16" stroke="black" stroke-width="5"/>
<line x1="204.7" y1="30" x2="182" y2="30" stroke="black" stroke-width="5"/>
<line x1="204.7" y1="44" x2="182" y2="44" stroke="black" stroke-width="5"/>
<line x1="281.7" y1="16" x2="259" y2="16" stroke="black" stroke-width="5"/>
<line x1="281.7" y1="30" x2="259" y2="30" stroke="black" stroke-width="5"/>
<line x1="281.7" y1="44" x2="259" y2="44" stroke="black" stroke-width="5"/>
<line x1="388.7" y1="16" x2="366" y2="16" stroke="black" stroke-width="5"/>
<line x1="388.7" y1="30" x2="366" y2="30" stroke="black" stroke-width="5"/>
<line x1="388.7" y1="44" x2="366" y2="44" stroke="black" stroke-width="5"/>
<line x1="22.7" y1="16.5" x2="-3.8147e-06" y2="16.5" stroke="black" stroke-width="5"/>
<line x1="22.7" y1="30.5" x2="-3.8147e-06" y2="30.5" stroke="black" stroke-width="5"/>
<line x1="22.7" y1="44.5" x2="-3.8147e-06" y2="44.5" stroke="black" stroke-width="5"/>
<line x1="353" y1="29.5" x2="339" y2="29.5" stroke="black" stroke-width="5"/>
<path d="M417.88 37.78L421.344 43.78H414.416L417.88 37.78Z" fill="black"/>
</svg>
